<svg xmlns="http://www.w3.org/2000/svg" width="1200" height="820" viewBox="0 0 1200 820"><rect width="100%" height="100%" fill="#f6f7f2"/><text x="40" y="48" font-size="30" font-family="Segoe UI, Arial" fill="#1f2937">Cell Lab Simulation (heuristic)</text><rect x="40" y="90" width="540" height="300" rx="18" fill="#ffffff" stroke="#d9dee8"/><text x="58" y="122" font-size="22" font-family="Segoe UI, Arial" fill="#111827">ATP</text><rect x="60" y="140" width="500" height="230" fill="#fbfcfe" stroke="#edf1f5"/><line x1="60" y1="197.5" x2="560" y2="197.5" stroke="#e5e7eb" stroke-dasharray="4 4"/><line x1="60" y1="255.0" x2="560" y2="255.0" stroke="#e5e7eb" stroke-dasharray="4 4"/><line x1="60" y1="312.5" x2="560" y2="312.5" stroke="#e5e7eb" stroke-dasharray="4 4"/><path d="M 60.00 235.83 L 71.63 237.21 L 83.26 238.47 L 94.88 239.61 L 106.51 240.63 L 118.14 241.68 L 129.77 242.77 L 141.40 243.91 L 153.02 245.09 L 164.65 246.33 L 176.28 222.77 L 187.91 224.10 L 199.53 225.48 L 211.16 235.53 L 222.79 245.63 L 234.42 230.94 L 246.05 241.18 L 257.67 251.49 L 269.30 278.44 L 280.93 308.90 L 292.56 324.98 L 304.19 341.10 L 315.81 357.29 L 327.44 366.50 L 339.07 369.35 L 350.70 369.63 L 362.33 369.66 L 373.95 369.67 L 385.58 369.69 L 397.21 369.70 L 408.84 369.72 L 420.47 369.74 L 432.09 369.75 L 443.72 369.77 L 455.35 369.79 L 466.98 369.81 L 478.60 369.84 L 490.23 369.86 L 501.86 369.88 L 513.49 369.91 L 525.12 369.93 L 536.74 369.96 L 548.37 369.99 L 560.00 370.00" fill="none" stroke="#d4a017" stroke-width="3"/><text x="60" y="392" font-size="14" font-family="Segoe UI, Arial" fill="#6b7280">0</text><text x="530" y="392" font-size="14" font-family="Segoe UI, Arial" fill="#6b7280">43</text><text x="510" y="158" font-size="14" font-family="Segoe UI, Arial" fill="#6b7280">120</text><rect x="620" y="90" width="540" height="300" rx="18" fill="#ffffff" stroke="#d9dee8"/><text x="638" y="122" font-size="22" font-family="Segoe UI, Arial" fill="#111827">Size</text><rect x="640" y="140" width="500" height="230" fill="#fbfcfe" stroke="#edf1f5"/><line x1="640" y1="197.5" x2="1140" y2="197.5" stroke="#e5e7eb" stroke-dasharray="4 4"/><line x1="640" y1="255.0" x2="1140" y2="255.0" stroke="#e5e7eb" stroke-dasharray="4 4"/><line x1="640" y1="312.5" x2="1140" y2="312.5" stroke="#e5e7eb" stroke-dasharray="4 4"/><path d="M 640.00 278.00 L 651.63 274.69 L 663.26 271.38 L 674.88 268.06 L 686.51 264.75 L 698.14 261.44 L 709.77 258.13 L 721.40 254.82 L 733.02 251.50 L 744.65 248.19 L 756.28 244.88 L 767.91 241.57 L 779.53 238.26 L 791.16 234.94 L 802.79 231.63 L 814.42 228.32 L 826.05 225.01 L 837.67 221.70 L 849.30 218.38 L 860.93 215.07 L 872.56 214.19 L 884.19 213.31 L 895.81 212.42 L 907.44 211.54 L 919.07 210.66 L 930.70 209.94 L 942.33 209.28 L 953.95 208.65 L 965.58 208.05 L 977.21 207.47 L 988.84 206.93 L 1000.47 206.42 L 1012.09 205.95 L 1023.72 205.52 L 1035.35 205.12 L 1046.98 204.77 L 1058.60 204.45 L 1070.23 204.19 L 1081.86 203.96 L 1093.49 203.79 L 1105.12 203.66 L 1116.74 203.59 L 1128.37 203.57 L 1140.00 203.60" fill="none" stroke="#2d6a4f" stroke-width="3"/><text x="640" y="392" font-size="14" font-family="Segoe UI, Arial" fill="#6b7280">0</text><text x="1110" y="392" font-size="14" font-family="Segoe UI, Arial" fill="#6b7280">43</text><text x="1090" y="158" font-size="14" font-family="Segoe UI, Arial" fill="#6b7280">2.5</text><rect x="40" y="430" width="540" height="300" rx="18" fill="#ffffff" stroke="#d9dee8"/><text x="58" y="462" font-size="22" font-family="Segoe UI, Arial" fill="#111827">Waste</text><rect x="60" y="480" width="500" height="230" fill="#fbfcfe" stroke="#edf1f5"/><line x1="60" y1="537.5" x2="560" y2="537.5" stroke="#e5e7eb" stroke-dasharray="4 4"/><line x1="60" y1="595.0" x2="560" y2="595.0" stroke="#e5e7eb" stroke-dasharray="4 4"/><line x1="60" y1="652.5" x2="560" y2="652.5" stroke="#e5e7eb" stroke-dasharray="4 4"/><path d="M 60.00 691.60 L 71.63 686.20 L 83.26 680.79 L 94.88 675.38 L 106.51 669.98 L 118.14 664.58 L 129.77 659.17 L 141.40 653.76 L 153.02 648.36 L 164.65 642.96 L 176.28 635.48 L 187.91 630.08 L 199.53 624.67 L 211.16 623.41 L 222.79 622.14 L 234.42 618.67 L 246.05 617.21 L 257.67 615.68 L 269.30 615.52 L 280.93 615.65 L 292.56 615.53 L 304.19 615.42 L 315.81 615.30 L 327.44 611.78 L 339.07 605.97 L 350.70 599.95 L 362.33 593.90 L 373.95 587.83 L 385.58 581.76 L 397.21 575.67 L 408.84 569.58 L 420.47 563.46 L 432.09 557.33 L 443.72 551.19 L 455.35 545.03 L 466.98 538.85 L 478.60 532.66 L 490.23 526.44 L 501.86 520.21 L 513.49 513.96 L 525.12 507.69 L 536.74 501.39 L 548.37 495.08 L 560.00 488.74" fill="none" stroke="#3a86ff" stroke-width="3"/><text x="60" y="732" font-size="14" font-family="Segoe UI, Arial" fill="#6b7280">0</text><text x="530" y="732" font-size="14" font-family="Segoe UI, Arial" fill="#6b7280">43</text><text x="510" y="498" font-size="14" font-family="Segoe UI, Arial" fill="#6b7280">100</text><rect x="620" y="430" width="540" height="300" rx="18" fill="#ffffff" stroke="#d9dee8"/><text x="638" y="462" font-size="22" font-family="Segoe UI, Arial" fill="#111827">Damage</text><rect x="640" y="480" width="500" height="230" fill="#fbfcfe" stroke="#edf1f5"/><line x1="640" y1="537.5" x2="1140" y2="537.5" stroke="#e5e7eb" stroke-dasharray="4 4"/><line x1="640" y1="595.0" x2="1140" y2="595.0" stroke="#e5e7eb" stroke-dasharray="4 4"/><line x1="640" y1="652.5" x2="1140" y2="652.5" stroke="#e5e7eb" stroke-dasharray="4 4"/><path d="M 640.00 701.95 L 651.63 704.49 L 663.26 707.03 L 674.88 709.46 L 686.51 709.89 L 698.14 709.94 L 709.77 709.83 L 721.40 710.00 L 733.02 709.97 L 744.65 709.93 L 756.28 709.95 L 767.91 709.89 L 779.53 709.94 L 791.16 709.91 L 802.79 709.90 L 814.42 709.34 L 826.05 708.96 L 837.67 708.58 L 849.30 708.31 L 860.93 707.96 L 872.56 707.48 L 884.19 706.75 L 895.81 705.08 L 907.44 703.65 L 919.07 700.93 L 930.70 697.37 L 942.33 693.37 L 953.95 689.21 L 965.58 684.82 L 977.21 680.13 L 988.84 675.22 L 1000.47 670.04 L 1012.09 664.58 L 1023.72 658.95 L 1035.35 653.02 L 1046.98 646.78 L 1058.60 640.26 L 1070.23 633.51 L 1081.86 626.45 L 1093.49 619.15 L 1105.12 611.55 L 1116.74 603.69 L 1128.37 595.51 L 1140.00 587.13" fill="none" stroke="#d00000" stroke-width="3"/><text x="640" y="732" font-size="14" font-family="Segoe UI, Arial" fill="#6b7280">0</text><text x="1110" y="732" font-size="14" font-family="Segoe UI, Arial" fill="#6b7280">43</text><text x="1090" y="498" font-size="14" font-family="Segoe UI, Arial" fill="#6b7280">200</text></svg>